<mxfile host="65bd71144e">
    <diagram id="8LeNPeYYxpYlOl0uPbSI" name="Page-1">
        <mxGraphModel dx="628" dy="607" grid="1" gridSize="10" guides="1" tooltips="1" connect="1" arrows="1" fold="1" page="1" pageScale="1" pageWidth="850" pageHeight="1100" math="0" shadow="0">
            <root>
                <mxCell id="0"/>
                <mxCell id="1" parent="0"/>
                <mxCell id="17" value="" style="rounded=1;whiteSpace=wrap;html=1;strokeColor=#4F5BFF;fontColor=#3B4B8C;fillColor=#18141D;" parent="1" vertex="1">
                    <mxGeometry x="180" y="350" width="160" height="70" as="geometry"/>
                </mxCell>
                <mxCell id="2" value="" style="fontColor=#0066CC;verticalAlign=top;verticalLabelPosition=bottom;labelPosition=center;align=center;html=1;outlineConnect=0;fillColor=#CCCCCC;strokeColor=#6881B3;gradientColor=none;gradientDirection=north;strokeWidth=2;shape=mxgraph.networks.wireless_modem;" parent="1" vertex="1">
                    <mxGeometry x="375" y="170" width="100" height="85" as="geometry"/>
                </mxCell>
                <mxCell id="5" value="" style="edgeStyle=none;shape=link;html=1;fontColor=#4F5BFF;" parent="1" source="3" target="2" edge="1">
                    <mxGeometry relative="1" as="geometry"/>
                </mxCell>
                <mxCell id="3" value="&lt;font color=&quot;#3b4b8c&quot;&gt;Internet&lt;/font&gt;" style="html=1;outlineConnect=0;fillColor=#CCCCCC;strokeColor=#282A3B;gradientColor=none;gradientDirection=north;strokeWidth=2;shape=mxgraph.networks.cloud;fontColor=#ffffff;" parent="1" vertex="1">
                    <mxGeometry x="380" y="30" width="90" height="50" as="geometry"/>
                </mxCell>
                <mxCell id="8" value="" style="fontColor=#0066CC;verticalAlign=top;verticalLabelPosition=bottom;labelPosition=center;align=center;html=1;outlineConnect=0;fillColor=#CCCCCC;strokeColor=#6881B3;gradientColor=none;gradientDirection=north;strokeWidth=2;shape=mxgraph.networks.laptop;" parent="1" vertex="1">
                    <mxGeometry x="650" y="160" width="100" height="55" as="geometry"/>
                </mxCell>
                <mxCell id="10" value="" style="fontColor=#0066CC;verticalAlign=top;verticalLabelPosition=bottom;labelPosition=center;align=center;html=1;outlineConnect=0;fillColor=#CCCCCC;strokeColor=#6881B3;gradientColor=none;gradientDirection=north;strokeWidth=2;shape=mxgraph.networks.printer;" parent="1" vertex="1">
                    <mxGeometry x="580" y="380" width="70" height="70" as="geometry"/>
                </mxCell>
                <mxCell id="11" value="" style="endArrow=none;dashed=1;html=1;fontColor=#4F5BFF;" parent="1" source="2" target="10" edge="1">
                    <mxGeometry width="50" height="50" relative="1" as="geometry">
                        <mxPoint x="490" y="550" as="sourcePoint"/>
                        <mxPoint x="540" y="500" as="targetPoint"/>
                    </mxGeometry>
                </mxCell>
                <mxCell id="12" value="" style="fontColor=#0066CC;verticalAlign=top;verticalLabelPosition=bottom;labelPosition=center;align=center;html=1;outlineConnect=0;fillColor=#CCCCCC;strokeColor=#6881B3;gradientColor=none;gradientDirection=north;strokeWidth=2;shape=mxgraph.networks.mobile;" parent="1" vertex="1">
                    <mxGeometry x="205" y="360" width="30" height="50" as="geometry"/>
                </mxCell>
                <mxCell id="14" value="" style="fontColor=#0066CC;verticalAlign=top;verticalLabelPosition=bottom;labelPosition=center;align=center;html=1;outlineConnect=0;fillColor=#CCCCCC;strokeColor=#6881B3;gradientColor=none;gradientDirection=north;strokeWidth=2;shape=mxgraph.networks.mobile;" parent="1" vertex="1">
                    <mxGeometry x="245" y="360" width="30" height="50" as="geometry"/>
                </mxCell>
                <mxCell id="15" value="" style="fontColor=#0066CC;verticalAlign=top;verticalLabelPosition=bottom;labelPosition=center;align=center;html=1;outlineConnect=0;fillColor=#CCCCCC;strokeColor=#6881B3;gradientColor=none;gradientDirection=north;strokeWidth=2;shape=mxgraph.networks.mobile;" parent="1" vertex="1">
                    <mxGeometry x="285" y="360" width="30" height="50" as="geometry"/>
                </mxCell>
                <mxCell id="18" value="" style="endArrow=none;dashed=1;html=1;fontColor=#4F5BFF;entryX=1;entryY=0;entryDx=0;entryDy=0;" parent="1" source="2" target="17" edge="1">
                    <mxGeometry width="50" height="50" relative="1" as="geometry">
                        <mxPoint x="485" y="259" as="sourcePoint"/>
                        <mxPoint x="649.9999999999998" y="379.44999999999993" as="targetPoint"/>
                    </mxGeometry>
                </mxCell>
                <mxCell id="19" value="" style="fontColor=#0066CC;verticalAlign=top;verticalLabelPosition=bottom;labelPosition=center;align=center;html=1;outlineConnect=0;fillColor=#CCCCCC;strokeColor=#6881B3;gradientColor=none;gradientDirection=north;strokeWidth=2;shape=mxgraph.networks.monitor;" parent="1" vertex="1">
                    <mxGeometry x="385" y="360" width="80" height="65" as="geometry"/>
                </mxCell>
                <mxCell id="20" value="" style="endArrow=none;dashed=1;html=1;fontColor=#4F5BFF;entryX=0.5;entryY=0;entryDx=0;entryDy=0;entryPerimeter=0;" parent="1" source="2" target="19" edge="1">
                    <mxGeometry width="50" height="50" relative="1" as="geometry">
                        <mxPoint x="425" y="270" as="sourcePoint"/>
                        <mxPoint x="589.9999999999998" y="390.44999999999993" as="targetPoint"/>
                    </mxGeometry>
                </mxCell>
                <mxCell id="22" value="&lt;font style=&quot;font-size: 10px;&quot;&gt;Router/Modem/Wireless AC&lt;br&gt;/Switch&lt;/font&gt;" style="swimlane;whiteSpace=wrap;html=1;strokeColor=#4F5BFF;fontColor=#3B4B8C;fillColor=none;align=center;startSize=30;" parent="1" vertex="1">
                    <mxGeometry x="220" y="150" width="165" height="60" as="geometry">
                        <mxRectangle x="250" y="182.5" width="210" height="30" as="alternateBounds"/>
                    </mxGeometry>
                </mxCell>
                <mxCell id="23" value="&lt;b&gt;LAN IP: 192.168.2.254&lt;br&gt;Subnet: 255.255.255.0&lt;br&gt;&lt;/b&gt;" style="text;html=1;strokeColor=none;fillColor=none;align=left;verticalAlign=middle;whiteSpace=wrap;rounded=0;fontSize=10;fontColor=#3B4B8C;" parent="22" vertex="1">
                    <mxGeometry y="30" width="160" height="30" as="geometry"/>
                </mxCell>
                <mxCell id="29" value="&lt;span style=&quot;font-size: 10px;&quot;&gt;Phones&lt;/span&gt;" style="swimlane;whiteSpace=wrap;html=1;strokeColor=#4F5BFF;fontColor=#3B4B8C;fillColor=#18141D;align=center;startSize=15;" parent="1" vertex="1">
                    <mxGeometry x="185" y="425" width="150" height="60" as="geometry">
                        <mxRectangle x="250" y="182.5" width="210" height="30" as="alternateBounds"/>
                    </mxGeometry>
                </mxCell>
                <mxCell id="30" value="&lt;b&gt;LAN IP: 192.168.2.5&lt;br&gt;Subnet: 255.255.255.0&lt;br&gt;&lt;/b&gt;&lt;b&gt;Default Gateway:&lt;/b&gt;&lt;b&gt;192.168.2.254&lt;/b&gt;&lt;b&gt;&lt;br&gt;&lt;/b&gt;" style="text;html=1;strokeColor=none;fillColor=#18141D;align=left;verticalAlign=middle;whiteSpace=wrap;rounded=0;fontSize=10;fontColor=#3B4B8C;" parent="29" vertex="1">
                    <mxGeometry y="15" width="150" height="45" as="geometry"/>
                </mxCell>
                <mxCell id="31" value="&lt;span style=&quot;font-size: 10px;&quot;&gt;All-in-one Printer&lt;/span&gt;" style="swimlane;whiteSpace=wrap;html=1;strokeColor=#4F5BFF;fontColor=#3B4B8C;fillColor=#18141D;align=center;startSize=15;" parent="1" vertex="1">
                    <mxGeometry x="540" y="460" width="150" height="60" as="geometry">
                        <mxRectangle x="250" y="182.5" width="210" height="30" as="alternateBounds"/>
                    </mxGeometry>
                </mxCell>
                <mxCell id="32" value="&lt;b&gt;LAN IP: 192.168.2.11&lt;br&gt;Subnet: 255.255.255.0&lt;br&gt;&lt;/b&gt;&lt;b&gt;Default Gateway:&lt;/b&gt;&lt;b&gt;192.168.2.254&lt;/b&gt;&lt;b&gt;&lt;br&gt;&lt;/b&gt;" style="text;html=1;strokeColor=none;fillColor=#18141D;align=left;verticalAlign=middle;whiteSpace=wrap;rounded=0;fontSize=10;fontColor=#3B4B8C;" parent="31" vertex="1">
                    <mxGeometry y="15" width="150" height="45" as="geometry"/>
                </mxCell>
                <mxCell id="33" value="&lt;span style=&quot;font-size: 10px;&quot;&gt;My Laptop&lt;/span&gt;" style="swimlane;whiteSpace=wrap;html=1;strokeColor=#4F5BFF;fontColor=#3B4B8C;fillColor=#18141D;align=center;startSize=15;" parent="1" vertex="1">
                    <mxGeometry x="625" y="220" width="150" height="60" as="geometry">
                        <mxRectangle x="250" y="182.5" width="210" height="30" as="alternateBounds"/>
                    </mxGeometry>
                </mxCell>
                <mxCell id="34" value="&lt;b&gt;LAN IP: 192.168.2.8&lt;br&gt;Subnet: 255.255.255.0&lt;br&gt;Default Gateway:&lt;/b&gt;&lt;b&gt;192.168.2.254&lt;/b&gt;&lt;b&gt;&lt;br&gt;&lt;/b&gt;" style="text;html=1;strokeColor=none;fillColor=#18141D;align=left;verticalAlign=middle;whiteSpace=wrap;rounded=0;fontSize=10;fontColor=#3B4B8C;" parent="33" vertex="1">
                    <mxGeometry y="15" width="150" height="45" as="geometry"/>
                </mxCell>
                <mxCell id="54" value="&lt;font style=&quot;font-size: 10px;&quot;&gt;Router/Modem/Wireless AC&lt;br&gt;/Switch&lt;/font&gt;" style="swimlane;whiteSpace=wrap;html=1;strokeColor=#4F5BFF;fontColor=#3B4B8C;fillColor=#18141D;align=center;startSize=30;" parent="33" vertex="1">
                    <mxGeometry x="-405" y="-70" width="170" height="60" as="geometry">
                        <mxRectangle x="250" y="182.5" width="210" height="30" as="alternateBounds"/>
                    </mxGeometry>
                </mxCell>
                <mxCell id="55" value="&lt;b&gt;LAN IP: 192.168.2.254&lt;br&gt;Subnet: 255.255.255.0&lt;br&gt;&lt;/b&gt;" style="text;html=1;strokeColor=none;fillColor=#18141D;align=left;verticalAlign=middle;whiteSpace=wrap;rounded=0;fontSize=10;fontColor=#3B4B8C;" parent="54" vertex="1">
                    <mxGeometry y="30" width="170" height="30" as="geometry"/>
                </mxCell>
                <mxCell id="56" value="Legend" style="swimlane;fontStyle=0;childLayout=stackLayout;horizontal=1;startSize=30;horizontalStack=0;resizeParent=1;resizeParentMax=0;resizeLast=0;collapsible=1;marginBottom=0;whiteSpace=wrap;html=1;strokeColor=#4F5BFF;fontSize=10;fontColor=#3B4B8C;fillColor=#18141D;" parent="33" vertex="1">
                    <mxGeometry x="-95" y="-200" width="200" height="90" as="geometry"/>
                </mxCell>
                <mxCell id="57" value="Wireless" style="text;strokeColor=none;fillColor=none;align=left;verticalAlign=middle;spacingLeft=4;spacingRight=4;overflow=hidden;points=[[0,0.5],[1,0.5]];portConstraint=eastwest;rotatable=0;whiteSpace=wrap;html=1;fontSize=10;fontColor=#3B4B8C;" parent="56" vertex="1">
                    <mxGeometry y="30" width="200" height="30" as="geometry"/>
                </mxCell>
                <mxCell id="58" value="" style="endArrow=none;dashed=1;html=1;fontColor=#4F5BFF;" parent="56" edge="1">
                    <mxGeometry width="50" height="50" relative="1" as="geometry">
                        <mxPoint x="70" y="44.72172413793105" as="sourcePoint"/>
                        <mxPoint x="175" y="44.47" as="targetPoint"/>
                    </mxGeometry>
                </mxCell>
                <mxCell id="59" value="" style="endArrow=classic;html=1;fontSize=10;fontColor=#3B4B8C;" parent="56" edge="1">
                    <mxGeometry width="50" height="50" relative="1" as="geometry">
                        <mxPoint x="60" y="79.5" as="sourcePoint"/>
                        <mxPoint x="175" y="68.5" as="targetPoint"/>
                        <Array as="points">
                            <mxPoint x="108" y="81.5"/>
                            <mxPoint x="111" y="68.5"/>
                        </Array>
                    </mxGeometry>
                </mxCell>
                <mxCell id="60" value="Ethernet" style="text;strokeColor=none;fillColor=none;align=left;verticalAlign=middle;spacingLeft=4;spacingRight=4;overflow=hidden;points=[[0,0.5],[1,0.5]];portConstraint=eastwest;rotatable=0;whiteSpace=wrap;html=1;fontSize=10;fontColor=#3B4B8C;" parent="56" vertex="1">
                    <mxGeometry y="60" width="200" height="30" as="geometry"/>
                </mxCell>
                <mxCell id="35" value="&lt;span style=&quot;font-size: 10px;&quot;&gt;Smart TV&lt;/span&gt;" style="swimlane;whiteSpace=wrap;html=1;strokeColor=#4F5BFF;fontColor=#3B4B8C;fillColor=#18141D;align=center;startSize=15;" parent="1" vertex="1">
                    <mxGeometry x="350" y="440" width="150" height="60" as="geometry">
                        <mxRectangle x="250" y="182.5" width="210" height="30" as="alternateBounds"/>
                    </mxGeometry>
                </mxCell>
                <mxCell id="36" value="&lt;b&gt;LAN IP: 192.168.2.10&lt;br&gt;Subnet: 255.255.255.0&lt;br&gt;&lt;/b&gt;&lt;b&gt;Default Gateway:&lt;/b&gt;&lt;b&gt;192.168.2.254&lt;/b&gt;&lt;b&gt;&lt;br&gt;&lt;/b&gt;" style="text;html=1;strokeColor=none;fillColor=#18141D;align=left;verticalAlign=middle;whiteSpace=wrap;rounded=0;fontSize=10;fontColor=#3B4B8C;" parent="35" vertex="1">
                    <mxGeometry y="15" width="150" height="45" as="geometry"/>
                </mxCell>
                <mxCell id="37" value="" style="fontColor=#0066CC;verticalAlign=top;verticalLabelPosition=bottom;labelPosition=center;align=center;html=1;outlineConnect=0;fillColor=#CCCCCC;strokeColor=#6881B3;gradientColor=none;gradientDirection=north;strokeWidth=2;shape=mxgraph.networks.laptop;" parent="1" vertex="1">
                    <mxGeometry x="45" y="270" width="100" height="55" as="geometry"/>
                </mxCell>
                <mxCell id="38" value="" style="fontColor=#0066CC;verticalAlign=top;verticalLabelPosition=bottom;labelPosition=center;align=center;html=1;outlineConnect=0;fillColor=#CCCCCC;strokeColor=#6881B3;gradientColor=none;gradientDirection=north;strokeWidth=2;shape=mxgraph.networks.laptop;" parent="1" vertex="1">
                    <mxGeometry x="700" y="310" width="100" height="55" as="geometry"/>
                </mxCell>
                <mxCell id="39" value="" style="endArrow=none;dashed=1;html=1;fontColor=#4F5BFF;entryX=0.85;entryY=0.5;entryDx=0;entryDy=0;entryPerimeter=0;" parent="1" source="2" target="37" edge="1">
                    <mxGeometry width="50" height="50" relative="1" as="geometry">
                        <mxPoint x="310" y="235.0000000000001" as="sourcePoint"/>
                        <mxPoint x="230.0000000000001" y="295" as="targetPoint"/>
                    </mxGeometry>
                </mxCell>
                <mxCell id="40" value="" style="endArrow=none;dashed=1;html=1;fontColor=#4F5BFF;entryX=0.15;entryY=0.5;entryDx=0;entryDy=0;entryPerimeter=0;" parent="1" source="2" target="38" edge="1">
                    <mxGeometry width="50" height="50" relative="1" as="geometry">
                        <mxPoint x="395" y="270.0000000000001" as="sourcePoint"/>
                        <mxPoint x="315.0000000000001" y="330" as="targetPoint"/>
                    </mxGeometry>
                </mxCell>
                <mxCell id="41" value="&lt;span style=&quot;font-size: 10px;&quot;&gt;Laptop 3&lt;/span&gt;" style="swimlane;whiteSpace=wrap;html=1;strokeColor=#4F5BFF;fontColor=#3B4B8C;fillColor=#18141D;align=center;startSize=15;" parent="1" vertex="1">
                    <mxGeometry x="20" y="335" width="150" height="60" as="geometry">
                        <mxRectangle x="250" y="182.5" width="210" height="30" as="alternateBounds"/>
                    </mxGeometry>
                </mxCell>
                <mxCell id="42" value="&lt;b&gt;LAN IP: 192.168.2.7&lt;br&gt;Subnet: 255.255.255.0&lt;br&gt;&lt;/b&gt;&lt;b&gt;Default Gateway:&lt;/b&gt;&lt;b&gt;192.168.2.254&lt;/b&gt;&lt;b&gt;&lt;br&gt;&lt;/b&gt;" style="text;html=1;strokeColor=none;fillColor=#18141D;align=left;verticalAlign=middle;whiteSpace=wrap;rounded=0;fontSize=10;fontColor=#3B4B8C;" parent="41" vertex="1">
                    <mxGeometry y="15" width="150" height="45" as="geometry"/>
                </mxCell>
                <mxCell id="43" value="&lt;span style=&quot;font-size: 10px;&quot;&gt;Laptop 2&lt;/span&gt;" style="swimlane;whiteSpace=wrap;html=1;strokeColor=#4F5BFF;fontColor=#3B4B8C;fillColor=#18141D;align=center;startSize=15;" parent="1" vertex="1">
                    <mxGeometry x="675" y="370" width="150" height="60" as="geometry">
                        <mxRectangle x="250" y="182.5" width="210" height="30" as="alternateBounds"/>
                    </mxGeometry>
                </mxCell>
                <mxCell id="44" value="&lt;b&gt;LAN IP: 192.168.2.22&lt;br&gt;Subnet: 255.255.255.0&lt;br&gt;&lt;/b&gt;&lt;b&gt;Default Gateway:&lt;/b&gt;&lt;b&gt;192.168.2.254&lt;/b&gt;&lt;b&gt;&lt;br&gt;&lt;/b&gt;" style="text;html=1;strokeColor=none;fillColor=#18141D;align=left;verticalAlign=middle;whiteSpace=wrap;rounded=0;fontSize=10;fontColor=#3B4B8C;" parent="43" vertex="1">
                    <mxGeometry y="15" width="150" height="45" as="geometry"/>
                </mxCell>
                <mxCell id="46" value="Legend" style="swimlane;fontStyle=0;childLayout=stackLayout;horizontal=1;startSize=30;horizontalStack=0;resizeParent=1;resizeParentMax=0;resizeLast=0;collapsible=1;marginBottom=0;whiteSpace=wrap;html=1;strokeColor=#4F5BFF;fontSize=10;fontColor=#3B4B8C;fillColor=none;" parent="1" vertex="1">
                    <mxGeometry x="530" y="20" width="200" height="90" as="geometry"/>
                </mxCell>
                <mxCell id="47" value="Wireless" style="text;strokeColor=none;fillColor=#18141D;align=left;verticalAlign=middle;spacingLeft=4;spacingRight=4;overflow=hidden;points=[[0,0.5],[1,0.5]];portConstraint=eastwest;rotatable=0;whiteSpace=wrap;html=1;fontSize=10;fontColor=#3B4B8C;" parent="46" vertex="1">
                    <mxGeometry y="30" width="200" height="30" as="geometry"/>
                </mxCell>
                <mxCell id="48" value="Ethernet" style="text;strokeColor=none;fillColor=#18141D;align=left;verticalAlign=middle;spacingLeft=4;spacingRight=4;overflow=hidden;points=[[0,0.5],[1,0.5]];portConstraint=eastwest;rotatable=0;whiteSpace=wrap;html=1;fontSize=10;fontColor=#3B4B8C;" parent="46" vertex="1">
                    <mxGeometry y="60" width="200" height="30" as="geometry"/>
                </mxCell>
                <mxCell id="61" value="" style="endArrow=classic;startArrow=classic;html=1;fontSize=14;" edge="1" parent="46">
                    <mxGeometry width="50" height="50" relative="1" as="geometry">
                        <mxPoint x="70" y="79" as="sourcePoint"/>
                        <mxPoint x="174" y="69" as="targetPoint"/>
                        <Array as="points">
                            <mxPoint x="121" y="85"/>
                            <mxPoint x="121" y="65"/>
                        </Array>
                    </mxGeometry>
                </mxCell>
                <mxCell id="51" value="" style="endArrow=none;dashed=1;html=1;fontColor=#4F5BFF;" parent="46" edge="1">
                    <mxGeometry width="50" height="50" relative="1" as="geometry">
                        <mxPoint x="70" y="44.72172413793105" as="sourcePoint"/>
                        <mxPoint x="175" y="44.47" as="targetPoint"/>
                    </mxGeometry>
                </mxCell>
                <mxCell id="62" value="" style="endArrow=classic;startArrow=classic;html=1;fontSize=14;edgeStyle=orthogonalEdgeStyle;" edge="1" parent="1" source="2" target="8">
                    <mxGeometry width="50" height="50" relative="1" as="geometry">
                        <mxPoint x="510" y="302.5" as="sourcePoint"/>
                        <mxPoint x="549.398148148148" y="210" as="targetPoint"/>
                    </mxGeometry>
                </mxCell>
            </root>
        </mxGraphModel>
    </diagram>
</mxfile>